<svg xmlns="http://www.w3.org/2000/svg" viewBox="0 0 262.3 109.57"><defs><style>.cls-1{fill:#fff;}</style></defs><title>logo</title><g id="圖層_2" data-name="圖層 2"><path class="cls-1" d="M512.28,202.54,502,256.69a1.31,1.31,0,0,1-2.55.11l-15.07-54.37a1.33,1.33,0,0,0-1.26-1H453.36a1.32,1.32,0,0,0-1.26,1l-15,54.43a1.32,1.32,0,0,1-2.56-.11l-10.23-54.21a1.3,1.3,0,0,0-1.28-1.07H361.63a1.34,1.34,0,0,0-1.13.64l-20.24,33.83a1.31,1.31,0,0,1-2.25,0l-20.2-33.83a1.34,1.34,0,0,0-1.13-.64H282.9a1.31,1.31,0,0,0-1.09,2l40.38,60.25a1.36,1.36,0,0,1,.22.73v43.42a1.31,1.31,0,0,0,1.31,1.31h30.75a1.31,1.31,0,0,0,1.31-1.31V294.24a25.51,25.51,0,0,0,1.87,3.6q4.62,7.35,11,10.28T385.08,311q8.3,0,13.66-2.4a23,23,0,0,0,9-7.11,26.3,26.3,0,0,0,3.13-5.34,1.31,1.31,0,0,1,2.47.24l2.82,12.67a1.31,1.31,0,0,0,1.28,1h30.87a1.32,1.32,0,0,0,1.27-1L467,246.26a1.31,1.31,0,0,1,2.53,0l17.52,62.91a1.32,1.32,0,0,0,1.27,1H519.2a1.31,1.31,0,0,0,1.28-1l23.37-106a1.31,1.31,0,0,0-1.28-1.6h-29A1.32,1.32,0,0,0,512.28,202.54ZM365.93,248.91l25.93-38.75a1.3,1.3,0,0,1,2.36.45l9.39,42.2c-.36-.29-.71-.58-1.09-.85q-6.66-4.71-18.32-4.71-9.74,0-16.57,3.54A1.31,1.31,0,0,1,365.93,248.91Zm31.71,36.23a1.33,1.33,0,0,0-1.65,1,17.62,17.62,0,0,1-3.73,7.56q-2.81,3.07-8.27,3.07-5.64,0-8.75-3.8t-3.12-14.06q0-8.28,2.61-12.14a11.19,11.19,0,0,1,9.93-5.22,11.34,11.34,0,0,1,5.18,1.18,11.06,11.06,0,0,1,3.91,3.37,12.06,12.06,0,0,1,1.5,3.06,1.29,1.29,0,0,0,1.51.81l8.88-2a1.3,1.3,0,0,1,1.56,1l4.07,18.28a1.31,1.31,0,0,1-1.66,1.54Z" transform="translate(-281.59 -201.47)"/></g></svg>